<svg width="448" height="512" viewBox="0 0 448 512" fill="none" xmlns="http://www.w3.org/2000/svg">
<g clip-path="url(#clip0_363_48)">
<path d="M160 112C160 76.7 188.7 48 224 48C259.3 48 288 76.7 288 112V160H160V112ZM112 160H48C21.5 160 0 181.5 0 208V416C0 469 43 512 96 512H352C405 512 448 469 448 416V208C448 181.5 426.5 160 400 160H336V112C336 50.1 285.9 0 224 0C162.1 0 112 50.1 112 112V160ZM136 208C139.152 208 142.273 208.621 145.184 209.827C148.096 211.033 150.742 212.801 152.971 215.029C155.199 217.258 156.967 219.904 158.173 222.816C159.379 225.727 160 228.848 160 232C160 235.152 159.379 238.273 158.173 241.184C156.967 244.096 155.199 246.742 152.971 248.971C150.742 251.199 148.096 252.967 145.184 254.173C142.273 255.379 139.152 256 136 256C132.848 256 129.727 255.379 126.816 254.173C123.904 252.967 121.258 251.199 119.029 248.971C116.801 246.742 115.033 244.096 113.827 241.184C112.621 238.273 112 235.152 112 232C112 228.848 112.621 225.727 113.827 222.816C115.033 219.904 116.801 217.258 119.029 215.029C121.258 212.801 123.904 211.033 126.816 209.827C129.727 208.621 132.848 208 136 208ZM288 232C288 225.635 290.529 219.53 295.029 215.029C299.53 210.529 305.635 208 312 208C318.365 208 324.47 210.529 328.971 215.029C333.471 219.53 336 225.635 336 232C336 238.365 333.471 244.47 328.971 248.971C324.47 253.471 318.365 256 312 256C305.635 256 299.53 253.471 295.029 248.971C290.529 244.47 288 238.365 288 232Z" fill="black"/>
</g>
<defs>
<clipPath id="clip0_363_48">
<rect width="448" height="512" fill="white"/>
</clipPath>
</defs>
</svg>
