<svg width="575" height="448" viewBox="0 0 575 448" fill="none" xmlns="http://www.w3.org/2000/svg">
<path d="M530 0C554.853 9.01964e-06 575 20.1472 575 45V403C575 427.853 554.853 448 530 448H45C20.1472 448 0 427.853 0 403V45C0 20.1472 20.1472 0 45 0H530ZM481.414 285.342L460.096 332H477.716L535 198.557H516.438L489.971 265.097H489.607L462.488 198.557H443.854L481.414 285.342ZM147.717 145.005C133.432 145.077 119.51 149.141 107.4 156.688C95.2911 164.234 85.575 175.046 79.2666 187.89C73.8283 198.701 71.0001 210.674 71 222.792C71 234.91 73.8276 246.883 79.1934 257.695V257.841C85.5018 270.684 95.2188 281.424 107.328 289.043C119.437 296.662 133.36 300.652 147.645 300.652C168.31 300.652 185.713 293.759 198.402 281.858C212.904 268.362 221.171 248.334 221.171 224.606C221.171 219.309 220.736 214.012 219.866 208.788H147.645V208.715L147.572 208.788H147.645V238.611H189.049C188.179 243.4 186.438 247.972 183.827 252.035C181.217 256.099 177.737 259.582 173.749 262.267C166.86 267.056 158.014 269.741 147.645 269.741C127.631 269.741 110.736 256.026 104.646 237.668C101.455 228.017 101.455 217.568 104.646 207.917C110.736 189.413 127.631 175.699 147.645 175.699C153.083 175.627 158.449 176.57 163.524 178.602C168.6 180.633 173.169 183.609 177.012 187.382L198.982 165.178C185.133 152.044 166.787 144.787 147.717 145.005ZM399.983 195.581C383.669 195.581 371.486 201.604 363.365 213.649L378.521 223.228C384.031 215.028 391.645 210.893 401.217 210.893C407.308 210.893 413.181 213.214 417.677 217.277C419.852 219.164 421.665 221.559 422.825 224.244C423.985 226.929 424.638 229.759 424.638 232.733V236.725C418.039 233.024 409.7 231.064 399.549 231.064C387.657 231.064 378.086 233.895 370.907 239.627C363.729 245.359 360.175 252.906 360.175 262.557C360.03 266.838 360.9 271.12 362.641 275.038C364.381 278.956 366.991 282.44 370.254 285.27C376.925 291.292 385.482 294.34 395.488 294.34C407.308 294.34 416.661 289.042 423.768 278.448H424.493V291.292H440.88V234.185C440.952 222.139 437.327 212.634 430.004 205.886V205.812C422.68 198.992 412.673 195.581 399.983 195.581ZM318.771 155.744H273.307V291.22H290.419V236.361H318.698C330.3 236.361 340.089 232.443 348.065 224.824C348.718 224.171 349.371 223.518 349.951 222.865C356.912 215.246 360.683 205.159 360.32 194.855C359.958 184.552 355.534 174.756 348.065 167.572H348.139C344.296 163.726 339.727 160.678 334.651 158.646C329.576 156.615 324.21 155.599 318.771 155.744ZM402.305 245.142C411.876 244.997 419.344 247.174 424.638 251.527C424.638 258.856 421.738 265.242 416.154 270.685L416.081 270.611C413.543 273.151 410.571 275.183 407.235 276.562C403.9 277.94 400.346 278.666 396.793 278.666C391.935 278.738 387.294 277.142 383.523 274.167C381.783 272.861 380.333 271.119 379.391 269.16C378.448 267.201 377.94 265.024 377.94 262.848C377.94 257.768 380.261 253.56 384.829 250.222C389.397 246.884 395.344 245.142 402.305 245.142ZM319.206 172.434C325.369 172.434 331.243 174.828 335.594 179.109C340.017 183.536 342.555 189.486 342.7 195.799C342.845 202.112 340.452 208.135 336.174 212.706H336.102C333.926 215.028 331.315 216.843 328.415 218.076C325.515 219.31 322.324 219.89 319.206 219.745H290.492V172.434H319.206Z" fill="white"/>
</svg>
