<svg width="2457" height="2457" viewBox="0 0 2457 2457" fill="none" xmlns="http://www.w3.org/2000/svg">
<circle cx="1229" cy="1229" r="973" fill="black"/>
<path d="M1874 1102.74L1458.49 1513.26M1874 1102.74H1770.12M1874 1102.74L1703.03 953.742M1229 1740L1283.17 1589.57M1229 1740L1171.67 1589.57M1229 1740L1011.63 1525.24M1229 1740L1458.49 1513.26M584 1102.74L1011.63 1525.24M584 1102.74H679.308M584 1102.74L747.419 953.742M986.132 1102.74H1222.31M986.132 1102.74L1171.67 1589.57M986.132 1102.74H774.616M986.132 1102.74L1044.24 953.742M1458.49 1102.74L1283.17 1589.57M1458.49 1102.74H1222.31M1458.49 1102.74H1666.25M1458.49 1102.74L1406.24 953.742M1283.17 1589.57L1222.31 1102.74M1283.17 1589.57L1666.25 1102.74M1222.31 1102.74L1171.67 1589.57M1222.31 1102.74L1406.24 953.742M1222.31 1102.74L1044.24 953.742M1171.67 1589.57L774.616 1102.74M1011.63 1525.24L774.616 1102.74M1011.63 1525.24L679.308 1102.74M774.616 1102.74H679.308M774.616 1102.74L747.419 953.742M774.616 1102.74L1044.24 953.742M679.308 1102.74L747.419 953.742M1666.25 1102.74L1458.49 1513.26M1666.25 1102.74H1770.12M1666.25 1102.74L1703.03 953.742M1666.25 1102.74L1406.24 953.742M1458.49 1513.26L1770.12 1102.74M1770.12 1102.74L1703.03 953.742M1703.03 953.742L1580.55 847.002H1458.49M1703.03 953.742L1458.49 847.002M747.419 953.742L864.489 847.002H986.132M747.419 953.742L986.132 847.002M986.132 847.002L1044.24 953.742M986.132 847.002H1222.31M1458.49 847.002L1406.24 953.742M1458.49 847.002H1222.31M1406.24 953.742L1222.31 847.002M1044.24 953.742L1222.31 847.002" stroke="white" stroke-width="20"/>
<path d="M397.034 1528.49L395.881 1524.65L473.237 1411.95L472.843 1410.64L390.081 1435.53C387.587 1436.28 385.352 1437.33 383.377 1438.67C381.463 1440 380.28 1442.39 379.828 1445.86C379.437 1449.31 380.186 1454.62 382.075 1461.8L379.176 1462.68C378.625 1460.39 377.753 1457.16 376.559 1452.96C375.427 1448.75 374.167 1444.33 372.78 1439.72C370.06 1430.68 367.813 1423.77 366.039 1419L368.938 1418.13C370.944 1424.12 372.996 1428.23 375.092 1430.46C377.252 1432.66 379.485 1433.76 381.792 1433.74C384.162 1433.71 386.625 1433.31 389.181 1432.54L464.93 1409.76C467.797 1408.89 470.063 1407.84 471.727 1406.59C473.41 1405.4 474.347 1403.32 474.538 1400.34C474.748 1397.42 474.087 1392.96 472.555 1386.96L475.36 1386.12C475.823 1388.56 476.586 1391.67 477.649 1395.42C478.793 1399.23 480.012 1403.28 481.306 1407.58C482.132 1410.33 482.922 1412.84 483.678 1415.13C484.516 1417.46 485.259 1419.48 485.909 1421.19L415.725 1518.07L416.147 1519.47L489.932 1497.28C492.425 1496.53 494.56 1495.38 496.336 1493.82C498.175 1492.25 499.311 1489.7 499.745 1486.17C500.179 1482.64 499.536 1477.56 497.816 1470.94L500.621 1470.1C501.191 1472.44 502.051 1475.75 503.201 1480.03C504.414 1484.29 505.696 1488.66 507.046 1493.15C509.784 1502.25 512.031 1509.16 513.787 1513.86L510.981 1514.71C509.206 1509.26 507.23 1505.4 505.052 1503.13C502.874 1500.86 500.562 1499.62 498.118 1499.41C495.754 1499.23 493.326 1499.52 490.832 1500.27L397.034 1528.49ZM411.964 1567.33L414.662 1565.96C417.399 1570.19 420.319 1573.34 423.42 1575.42C426.521 1577.49 430.604 1578.41 435.668 1578.17L544.992 1572.94L547.206 1577.29L478.04 1665.52C475.617 1668.65 474.272 1671.97 474.006 1675.46C473.739 1678.96 474.642 1683.1 476.714 1687.89L474.016 1689.27C472.538 1686.07 470.882 1682.61 469.051 1678.86C467.307 1675.15 465.49 1671.43 463.6 1667.72C460.736 1662.09 458.109 1657.07 455.719 1652.66C453.417 1648.28 451.558 1644.85 450.143 1642.35L452.841 1640.98C457.091 1649.04 460.588 1653.55 463.331 1654.49C466.075 1655.43 469.265 1653.59 472.9 1648.96L490.257 1626.87L466.295 1579.78L459.833 1580.01C447.403 1580.41 439.123 1582.95 434.993 1587.61C430.95 1592.29 430.994 1598.48 435.124 1606.17L432.426 1607.54C431.126 1604.84 429.471 1601.37 427.461 1597.14C425.481 1592.96 423.383 1588.69 421.168 1584.34C419.928 1581.9 418.674 1579.58 417.407 1577.38C416.227 1575.2 414.412 1571.85 411.964 1567.33ZM469.658 1579.72L492.379 1624.37L532.177 1576.61L469.658 1579.72ZM501.986 1728.79L504.415 1726.98C509.443 1733.3 513.424 1737.56 516.358 1739.76C519.383 1741.97 522.03 1742.8 524.297 1742.25C526.617 1741.66 529.188 1740.32 532.008 1738.22L606.051 1683.13L596.666 1670.52C593.713 1666.55 590.405 1663.41 586.742 1661.11C583.079 1658.8 578.201 1657.64 572.107 1657.63C566.104 1657.63 557.96 1659.07 547.676 1661.93L545.869 1659.5C553.88 1655.33 560.268 1651.75 565.032 1648.78C569.796 1645.8 574.007 1642.63 577.666 1639.25C582.419 1645.86 587.814 1653.33 593.849 1661.66C599.976 1670.01 606.303 1678.57 612.832 1687.34C616.212 1691.89 619.962 1696.93 624.082 1702.46C628.201 1708 632.385 1713.57 636.634 1719.17C640.935 1724.74 644.965 1729.93 648.722 1734.77C645.094 1736.98 640.934 1740.11 636.244 1744.17C631.606 1748.19 626.312 1753.34 620.364 1759.64L618.498 1757.13C624.264 1747.65 627.953 1739.95 629.564 1734.05C631.228 1728.1 631.443 1723.16 630.208 1719.21C629.026 1715.22 627.035 1711.34 624.237 1707.58L614.911 1695.04L540.869 1750.13C538.048 1752.23 536.022 1754.3 534.79 1756.35C533.61 1758.37 533.645 1761.14 534.894 1764.68C536.234 1768.22 539.171 1773.26 543.703 1779.79L541.274 1781.59C539.008 1778.33 536.21 1774.41 532.882 1769.82C529.606 1765.2 526.102 1760.38 522.372 1755.37C518.019 1749.52 514.081 1744.33 510.557 1739.82C507.085 1735.26 504.228 1731.58 501.986 1728.79ZM624.161 1872.78C612.456 1861.75 606.916 1849.78 607.543 1836.87C608.218 1824 614.983 1810.74 627.839 1797.09L656.631 1766.52C659.22 1763.77 660.806 1761.38 661.39 1759.33C661.974 1757.29 661.445 1755 659.803 1752.47C658.209 1749.99 655.392 1746.66 651.353 1742.5L653.362 1740.37C655.215 1742.29 657.78 1744.89 661.056 1748.15C664.376 1751.37 668.405 1755.21 673.144 1759.67C678.168 1764.4 682.432 1768.38 685.936 1771.59C689.532 1774.79 692.252 1777.18 694.094 1778.73L692.086 1780.87C687.642 1777.04 684.085 1774.36 681.414 1772.83C678.835 1771.29 676.542 1770.88 674.537 1771.58C672.576 1772.24 670.257 1773.99 667.578 1776.83L636.041 1810.32C625.908 1821.07 620.105 1831.84 618.631 1842.61C617.249 1853.39 620.989 1862.95 629.851 1871.29C639.898 1880.76 650.632 1884.7 662.052 1883.11C673.52 1881.57 685.013 1874.69 696.53 1862.46L724.384 1832.89C727.241 1829.86 728.956 1827.13 729.528 1824.72C730.101 1822.31 729.54 1819.72 727.846 1816.96C726.243 1814.2 723.47 1810.79 719.525 1806.71L721.534 1804.58C722.911 1805.97 724.929 1808 727.589 1810.69C730.248 1813.37 733.592 1816.61 737.62 1820.4C741.838 1824.38 745.319 1827.56 748.062 1829.97C750.852 1832.42 752.933 1834.25 754.305 1835.45L752.296 1837.58C748.09 1833.98 744.606 1831.45 741.846 1830.02C739.133 1828.62 736.659 1828.31 734.425 1829.06C732.238 1829.87 729.784 1831.71 727.061 1834.6L699.809 1863.54C686.863 1877.28 673.946 1885.01 661.055 1886.73C648.212 1888.5 635.914 1883.85 624.161 1872.78ZM696.733 1934.61L698.401 1932.09C703.054 1934.85 706.691 1936.67 709.313 1937.54C711.971 1938.36 714.173 1938.21 715.92 1937.1C717.757 1935.98 719.68 1933.89 721.689 1930.85L766.036 1863.7C768.081 1860.61 769.244 1858.02 769.524 1855.94C769.858 1853.9 769.109 1851.85 767.276 1849.78C765.48 1847.65 762.399 1844.99 758.033 1841.8L759.648 1839.35C761.676 1840.77 764.411 1842.66 767.852 1845.01C771.329 1847.3 775.512 1850.07 780.401 1853.3C785.562 1856.7 790.523 1859.94 795.285 1863.01C800.048 1866.08 803.379 1868.24 805.281 1869.49C817.178 1877.35 825.167 1885.51 829.248 1893.98C833.329 1902.45 832.93 1910.38 828.051 1917.77C823.637 1924.45 817.298 1928.26 809.032 1929.2C800.856 1930.12 791.829 1928.25 781.95 1923.6C786.679 1927.43 790.125 1931.07 792.289 1934.53C794.543 1937.97 795.696 1941.65 795.749 1945.59C795.802 1949.53 794.892 1954.15 793.019 1959.47L785.636 1980.93C784.763 1983.55 784.853 1985.71 785.908 1987.42C787.053 1989.12 788.757 1990.79 791.022 1992.44C792.724 1993.64 794.614 1994.27 796.69 1994.31C798.767 1994.36 800.969 1994.1 803.296 1993.53L803.391 1996.75C799.062 1997.87 795.299 1998.19 792.101 1997.72C788.867 1997.3 785.511 1995.94 782.034 1993.64C777.743 1990.81 774.883 1987.17 773.455 1982.71C772.028 1978.26 772.268 1973.23 774.176 1967.62L780.032 1950.07C782.546 1942.6 783.187 1936.44 781.957 1931.57C780.726 1926.69 776.987 1922.2 770.739 1918.07L755.094 1907.74L734.32 1939.19C732.239 1942.34 731.013 1944.97 730.643 1947.06C730.363 1949.14 731.139 1951.21 732.972 1953.28C734.84 1955.3 737.957 1957.9 742.323 1961.1L740.654 1963.62C738.662 1962.15 735.809 1960.15 732.097 1957.62C728.42 1955.03 724.001 1952.04 718.84 1948.63C713.734 1945.26 709.27 1942.39 705.45 1940.02C701.72 1937.63 698.814 1935.83 696.733 1934.61ZM799.701 1869.44L786.255 1860.56L756.709 1905.29L770.561 1914.44C789.303 1926.82 803.698 1925.4 813.744 1910.19C818.875 1902.42 820.234 1895.29 817.823 1888.78C815.466 1882.31 809.425 1875.86 799.701 1869.44ZM808.359 2007.04L809.588 2004.27C814.381 2005.83 818.634 2006.44 822.349 2006.1C826.064 2005.76 829.813 2003.9 833.594 2000.52L915.186 1927.57L919.648 1929.55L921.541 2041.65C921.633 2045.61 922.677 2049.03 924.673 2051.91C926.669 2054.79 929.98 2057.44 934.607 2059.85L933.378 2062.62C930.218 2061.07 926.748 2059.42 922.967 2057.67C919.272 2055.88 915.521 2054.15 911.713 2052.45C905.943 2049.89 900.741 2047.65 896.107 2045.73C891.559 2043.78 887.95 2042.28 885.28 2041.24L886.509 2038.47C894.891 2042.05 900.444 2043.35 903.167 2042.35C905.891 2041.35 907.206 2037.91 907.114 2032.03L906.671 2003.94L858.395 1982.47L853.516 1986.72C844.122 1994.87 839.289 2002.05 839.017 2008.27C838.831 2014.46 842.764 2019.24 850.815 2022.6L849.585 2025.37C846.875 2024.09 843.405 2022.44 839.175 2020.42C835.004 2018.42 830.687 2016.43 826.226 2014.45C823.727 2013.34 821.291 2012.33 818.918 2011.41C816.631 2010.47 813.111 2009.01 808.359 2007.04ZM860.963 1980.3L906.741 2000.65L907.55 1938.49L860.963 1980.3ZM953.147 2068.91L953.917 2065.98C959.918 2067.22 964.359 2067.61 967.238 2067.16C970.118 2066.7 972.089 2065.61 973.153 2063.87C974.279 2062.14 975.182 2059.99 975.861 2057.41L996.331 1979.59C997.291 1975.94 997.554 1973.15 997.12 1971.21C996.765 1969.24 995.357 1967.55 992.895 1966.16C990.495 1964.79 986.678 1963.18 981.442 1961.33L982.187 1958.5C984.185 1959.09 987.309 1960.02 991.557 1961.27C995.805 1962.52 1001.17 1964 1007.66 1965.71C1014.96 1967.63 1021.08 1969.2 1026 1970.43C1031.01 1971.61 1034.82 1972.48 1037.44 1973.03L1036.69 1975.87C1030.22 1974.63 1025.26 1974.04 1021.81 1974.07C1018.45 1974.06 1016 1974.8 1014.47 1976.28C1012.93 1977.76 1011.74 1980.14 1010.88 1983.41L990.405 2061.24C989.66 2064.07 989.314 2066.54 989.367 2068.64C989.5 2070.69 990.599 2072.53 992.664 2074.15C994.745 2075.71 998.43 2077.18 1003.72 2078.57L1009.95 2080.21C1016.25 2081.87 1021.8 2083.03 1026.61 2083.68C1031.43 2084.28 1035.82 2083.99 1039.77 2082.8C1043.79 2081.57 1047.75 2079.08 1051.63 2075.32C1055.51 2071.56 1059.71 2066.1 1064.22 2058.94L1067.15 2059.71C1064.23 2066.69 1061.74 2073.1 1059.66 2078.95C1057.65 2084.81 1056.05 2090.38 1054.86 2095.66C1049.17 2094.03 1042.71 2092.23 1035.48 2090.26C1028.34 2088.25 1019.89 2085.96 1010.13 2083.39C997.597 2080.09 986.53 2077.25 976.927 2074.86C967.403 2072.42 959.476 2070.44 953.147 2068.91ZM1200.06 2111.99C1187.69 2111.62 1176.96 2108.95 1167.86 2103.98C1158.83 2098.96 1151.91 2092.07 1147.09 2083.33C1142.28 2074.52 1140.05 2064.29 1140.4 2052.64C1140.77 2040.47 1143.72 2029.91 1149.27 2020.96C1154.82 2011.95 1162.36 2005.01 1171.88 2000.15C1181.48 1995.3 1192.39 1993.06 1204.62 1993.43C1211.46 1993.63 1217.65 1994.6 1223.2 1996.33C1228.74 1998.06 1233.51 1999.8 1237.5 2001.55C1241.55 2003.24 1244.65 2004.11 1246.8 2004.18C1249.01 2004.25 1250.69 2003.61 1251.84 2002.28C1252.99 2000.88 1254 1998.57 1254.88 1995.34L1257.91 1995.43C1257.69 1998.16 1257.47 2001.21 1257.24 2004.59C1257.01 2007.91 1256.78 2012.1 1256.56 2017.18C1256.41 2022.19 1256.22 2028.69 1255.97 2036.7L1252.85 2036.6C1250.25 2023.5 1244.72 2013.59 1236.26 2006.89C1227.87 2000.12 1217.39 1996.55 1204.83 1996.17C1190.19 1995.72 1178.62 2000.32 1170.12 2009.97C1161.62 2019.61 1157.11 2033.28 1156.57 2050.98C1156.03 2068.81 1159.77 2082.9 1167.8 2093.24C1175.82 2103.51 1187.22 2108.87 1201.99 2109.32C1213.64 2109.67 1222.76 2107.44 1229.36 2102.62C1236.02 2097.81 1239.46 2091.5 1239.7 2083.69L1239.87 2078.03C1240 2073.93 1239.57 2070.79 1238.59 2068.61C1237.68 2066.43 1235.84 2064.91 1233.07 2064.04C1230.29 2063.11 1226.21 2062.53 1220.81 2062.31L1220.9 2059.28C1222.65 2059.4 1225.68 2059.59 1229.97 2059.85C1234.26 2060.11 1239.5 2060.33 1245.68 2060.52C1250.56 2060.67 1254.89 2060.76 1258.66 2060.81C1262.44 2060.8 1265.67 2060.77 1268.34 2060.72L1268.25 2063.74C1264.4 2063.82 1261.56 2064.16 1259.72 2064.75C1257.87 2065.35 1256.66 2066.58 1256.09 2068.45C1255.51 2070.33 1255.16 2073.25 1255.04 2077.22L1253.96 2113.04L1250.93 2112.95C1249.53 2107.56 1246.97 2104.82 1243.27 2104.7C1240.73 2104.63 1237.55 2105.25 1233.73 2106.56C1229.98 2107.88 1225.35 2109.18 1219.84 2110.44C1214.39 2111.71 1207.8 2112.23 1200.06 2111.99ZM1298.09 2110.31L1297.67 2107.31C1302.93 2106.39 1306.8 2105.39 1309.29 2104.32C1311.76 2103.19 1313.28 2101.59 1313.85 2099.54C1314.42 2097.49 1314.45 2094.66 1313.95 2091.05L1302.86 2011.35C1302.34 2007.61 1301.53 2004.86 1300.43 2003.11C1299.33 2001.35 1297.44 2000.3 1294.76 1999.95C1292.08 1999.54 1288.08 1999.6 1282.76 2000.14L1282.36 1997.24C1288.37 1996.54 1296.13 1995.59 1305.63 1994.4C1315.18 1993.14 1326.27 1991.62 1338.91 1989.87C1343.81 1989.18 1349.71 1988.36 1356.61 1987.4C1363.5 1986.38 1369.83 1985.33 1375.6 1984.27C1376.27 1991.41 1378.49 2001.02 1382.28 2013.12L1379.18 2013.55C1375.89 2007.37 1372.76 2002.58 1369.79 1999.18C1366.81 1995.71 1363.5 1993.45 1359.87 1992.37C1356.29 1991.23 1351.83 1991.03 1346.47 1991.77L1315.91 1996.02L1323.04 2047.29L1338.81 2045.09C1346.29 2044.05 1351.43 2041.56 1354.23 2037.62C1357.04 2033.68 1358.44 2027.67 1358.43 2019.59L1361.04 2019.23C1361.54 2025.66 1362.02 2030.53 1362.48 2033.82C1363 2037.09 1363.47 2040.22 1363.88 2043.18C1364.06 2044.47 1364.3 2045.95 1364.6 2047.62C1364.89 2049.22 1365.31 2051.53 1365.86 2054.54C1366.46 2057.48 1367.27 2061.61 1368.27 2066.93L1365.56 2067.3C1364.1 2061.53 1362.34 2057.14 1360.28 2054.14C1358.28 2051.13 1355.61 2049.2 1352.28 2048.35C1348.99 2047.42 1344.64 2047.34 1339.22 2048.09L1323.46 2050.29L1328.84 2088.98C1329.38 2092.85 1330.17 2095.66 1331.2 2097.42C1332.23 2099.19 1333.96 2100.23 1336.37 2100.55C1338.83 2100.8 1342.42 2100.6 1347.13 2099.94L1354.09 2098.97C1362.93 2097.74 1369.89 2095.79 1374.97 2093.11C1380.12 2090.42 1384.06 2086.39 1386.79 2081.01C1389.52 2075.57 1391.71 2068.17 1393.37 2058.8L1396.36 2058.38C1396.41 2066.73 1396.63 2073.99 1397.03 2080.18C1397.49 2086.29 1398.1 2091.66 1398.88 2096.29C1392.93 2096.99 1386.34 2097.8 1379.11 2098.74C1371.93 2099.61 1363.73 2100.69 1354.51 2101.97C1341.87 2103.73 1330.82 2105.33 1321.36 2106.78C1311.89 2108.16 1304.13 2109.34 1298.09 2110.31ZM1509.77 2064.93L1506.26 2066.12L1422.8 1980.7L1421.51 1981.14L1449.49 2064.04C1450.78 2067.87 1452.31 2070.58 1454.09 2072.18C1455.93 2073.76 1458.49 2074.44 1461.78 2074.22C1465.12 2073.92 1469.74 2072.94 1475.64 2071.3L1476.61 2074.16C1474.72 2074.67 1471.82 2075.54 1467.91 2076.79C1463.98 2077.98 1459.4 2079.46 1454.15 2081.23C1449.65 2082.75 1445.66 2084.16 1442.19 2085.47C1438.69 2086.72 1435.98 2087.74 1434.04 2088.53L1433.08 2085.66C1438.05 2083.71 1441.71 2081.92 1444.05 2080.31C1446.45 2078.67 1447.78 2076.71 1448.04 2074.42C1448.34 2072.06 1447.84 2068.93 1446.53 2065.04L1421.23 1990.09C1420.07 1986.64 1418.75 1984.16 1417.28 1982.67C1415.88 1981.15 1413.75 1980.46 1410.91 1980.59C1408.07 1980.72 1403.93 1981.57 1398.48 1983.14L1397.54 1980.36C1399.78 1979.88 1402.7 1979.07 1406.3 1977.92C1409.94 1976.69 1414.11 1975.29 1418.79 1973.7C1424.84 1971.66 1429.14 1970.04 1431.68 1968.84L1507.95 2049.16L1516.07 1940.36C1518.13 1939.94 1520.34 1939.37 1522.7 1938.64C1525.05 1937.85 1527.39 1937.06 1529.74 1936.26C1534.55 1934.64 1538.95 1933.12 1542.94 1931.71C1546.97 1930.21 1549.95 1929.07 1551.88 1928.28L1552.82 1931.05C1547.6 1933.09 1543.78 1934.93 1541.38 1936.56C1539.04 1938.18 1537.74 1940.02 1537.48 1942.1C1537.28 1944.16 1537.76 1946.92 1538.93 1950.37L1564.66 2026.62C1565.81 2030.01 1567.12 2032.49 1568.61 2034.05C1570.08 2035.54 1572.23 2036.23 1575.07 2036.09C1577.97 2035.94 1582.09 2035.1 1587.42 2033.58L1588.38 2036.44C1585.69 2037.22 1582.17 2038.3 1577.83 2039.69C1573.47 2041.03 1568.55 2042.62 1563.06 2044.47C1557.45 2046.37 1552.56 2048.09 1548.41 2049.62C1544.3 2051.08 1541.06 2052.28 1538.7 2053.21L1537.73 2050.34C1542.62 2048.55 1546.21 2046.97 1548.49 2045.58C1550.75 2044.13 1551.98 2042.37 1552.17 2040.31C1552.35 2038.19 1551.79 2035.22 1550.5 2031.4L1520.5 1942.48L1519.11 1942.94L1509.77 2064.93ZM1654.72 2005.3C1648.83 2008.51 1643.5 2010.42 1638.71 2011.02C1633.95 2011.54 1629.86 2011.73 1626.45 2011.59C1623.01 2011.39 1620.37 2011.79 1618.54 2012.79C1617 2013.63 1616.12 2014.95 1615.93 2016.77C1615.7 2018.52 1616.25 2021.3 1617.57 2025.1L1614.92 2026.55C1613.71 2023.65 1611.53 2019.24 1608.38 2013.32C1605.28 2007.37 1600.93 1999.25 1595.32 1988.96L1598.07 1987.46C1605.14 1998.14 1613.38 2004.88 1622.77 2007.7C1632.13 2010.46 1641.65 2009.2 1651.31 2003.94C1658.74 1999.89 1663.58 1994.95 1665.82 1989.14C1668.06 1983.32 1667.3 1976.95 1663.53 1970.03C1661.28 1965.92 1658.63 1963.02 1655.57 1961.35C1652.51 1959.69 1648.51 1958.87 1643.56 1958.89C1638.57 1958.87 1632.11 1959.39 1624.16 1960.45C1614.62 1961.58 1606.68 1962.05 1600.35 1961.86C1594.02 1961.68 1588.87 1960.52 1584.89 1958.39C1580.91 1956.25 1577.66 1952.87 1575.14 1948.24C1570.68 1940.07 1569.95 1932.05 1572.93 1924.2C1575.89 1916.29 1582.11 1909.74 1591.6 1904.57C1596.63 1901.83 1601.1 1900.1 1605.01 1899.38C1608.97 1898.63 1612.42 1898.16 1615.36 1897.97C1618.3 1897.77 1620.79 1897.12 1622.85 1896C1624.39 1895.16 1625.42 1894.11 1625.93 1892.87C1626.5 1891.6 1626.35 1889.49 1625.49 1886.55L1628.23 1885.06C1629.21 1887.27 1630.34 1889.73 1631.6 1892.45C1632.92 1895.15 1634.64 1898.51 1636.76 1902.54C1638.88 1906.57 1641.67 1911.76 1645.13 1918.11L1642.47 1919.56C1636.12 1910.34 1628.75 1904.65 1620.37 1902.47C1611.96 1900.23 1603.44 1901.46 1594.8 1906.16C1588.06 1909.84 1583.63 1914.37 1581.52 1919.74C1579.37 1925.06 1580 1930.84 1583.4 1937.07C1585.3 1940.56 1587.82 1943.08 1590.96 1944.63C1594.16 1946.14 1598.48 1946.87 1603.93 1946.79C1609.4 1946.63 1616.47 1945.85 1625.13 1944.47C1638.83 1942.12 1649.37 1941.94 1656.75 1943.92C1664.1 1945.85 1669.75 1950.44 1673.71 1957.7C1678.54 1966.56 1679.24 1975.26 1675.81 1983.8C1672.44 1992.31 1665.41 1999.48 1654.72 2005.3ZM1733.57 1952.94L1731.75 1950.53C1738.03 1945.46 1742.27 1941.45 1744.45 1938.5C1746.64 1935.46 1747.45 1932.81 1746.89 1930.54C1746.28 1928.23 1744.92 1925.67 1742.8 1922.86L1687.24 1849.18L1674.68 1858.65C1670.73 1861.63 1667.62 1864.96 1665.33 1868.63C1663.05 1872.31 1661.93 1877.2 1661.96 1883.29C1662 1889.3 1663.48 1897.43 1666.42 1907.69L1664 1909.52C1659.77 1901.53 1656.15 1895.17 1653.15 1890.43C1650.14 1885.68 1646.94 1881.49 1643.54 1877.85C1650.12 1873.06 1657.55 1867.61 1665.84 1861.52C1674.15 1855.34 1682.66 1848.96 1691.4 1842.37C1695.92 1838.96 1700.93 1835.18 1706.44 1831.02C1711.95 1826.87 1717.5 1822.65 1723.07 1818.36C1728.61 1814.02 1733.78 1809.96 1738.58 1806.17C1740.82 1809.79 1743.98 1813.92 1748.07 1818.59C1752.12 1823.2 1757.31 1828.46 1763.64 1834.37L1761.15 1836.25C1751.63 1830.54 1743.91 1826.91 1737.99 1825.33C1732.04 1823.71 1727.09 1823.53 1723.15 1824.79C1719.17 1826 1715.3 1828.01 1711.56 1830.83L1699.09 1840.24L1754.66 1913.92C1756.77 1916.73 1758.86 1918.74 1760.92 1919.96C1762.94 1921.13 1765.72 1921.07 1769.24 1919.8C1772.78 1918.44 1777.8 1915.47 1784.3 1910.89L1786.12 1913.31C1782.87 1915.6 1778.96 1918.42 1774.4 1921.78C1769.8 1925.09 1765.01 1928.62 1760.02 1932.38C1754.2 1936.78 1749.04 1940.75 1744.54 1944.3C1740.01 1947.8 1736.35 1950.68 1733.57 1952.94ZM1880.34 1825.11C1870.79 1835.53 1860.75 1842.97 1850.21 1847.44C1839.71 1851.86 1829.31 1853.19 1819 1851.43C1808.65 1849.63 1798.96 1844.59 1789.94 1836.32C1781.06 1828.18 1775.26 1818.99 1772.56 1808.74C1769.89 1798.44 1770.28 1787.81 1773.72 1776.83C1777.11 1765.8 1783.53 1755.13 1792.99 1744.81C1802.58 1734.35 1812.64 1726.88 1823.18 1722.41C1833.68 1717.9 1844.1 1716.54 1854.45 1718.35C1864.76 1720.11 1874.43 1725.13 1883.45 1733.4C1892.33 1741.53 1898.15 1750.75 1900.9 1761.04C1903.61 1771.29 1903.24 1781.95 1899.81 1793.02C1896.37 1804 1889.88 1814.7 1880.34 1825.11ZM1877.78 1823.57C1885.26 1815.41 1890.02 1806.79 1892.07 1797.72C1894.06 1788.6 1893.42 1779.57 1890.12 1770.64C1886.87 1761.65 1881.02 1753.29 1872.58 1745.55C1863.98 1737.68 1855.05 1732.59 1845.78 1730.27C1836.56 1727.91 1827.58 1728.12 1818.85 1730.9C1810.17 1733.62 1802.4 1738.73 1795.54 1746.22C1788.15 1754.29 1783.43 1762.9 1781.39 1772.07C1779.35 1781.14 1779.93 1790.2 1783.13 1799.23C1786.38 1808.21 1792.23 1816.57 1800.68 1824.31C1809.27 1832.18 1818.2 1837.32 1827.48 1839.73C1836.7 1842.09 1845.68 1841.88 1854.41 1839.1C1863.08 1836.28 1870.88 1831.1 1877.78 1823.57ZM2007.17 1649.43L2005.08 1652.84L1869.5 1670.26L1868.78 1671.43L1942.5 1716.55C1944.72 1717.91 1946.99 1718.88 1949.3 1719.46C1951.56 1720 1954.14 1719.29 1957.03 1717.31C1959.86 1715.31 1963.32 1711.21 1967.42 1705.01L1970 1706.59C1968.67 1708.52 1966.83 1711.33 1964.5 1715.02C1962.11 1718.67 1959.66 1722.55 1957.14 1726.66C1952.22 1734.71 1948.57 1740.99 1946.19 1745.49L1943.61 1743.91C1946.74 1738.42 1948.44 1734.15 1948.7 1731.11C1948.9 1728.03 1948.23 1725.63 1946.68 1723.92C1945.08 1722.18 1943.14 1720.61 1940.86 1719.21L1873.4 1677.92C1870.84 1676.35 1868.55 1675.37 1866.51 1674.96C1864.5 1674.49 1862.32 1675.18 1859.97 1677.03C1857.66 1678.82 1854.77 1682.28 1851.32 1687.42L1848.82 1685.89C1850.34 1683.92 1852.14 1681.28 1854.24 1677.98C1856.31 1674.59 1858.52 1670.99 1860.87 1667.15C1862.36 1664.71 1863.71 1662.45 1864.91 1660.36C1866.09 1658.18 1867.1 1656.28 1867.94 1654.66L1986.95 1642.43L1987.72 1641.18L1922 1600.95C1919.78 1599.59 1917.5 1598.77 1915.15 1598.48C1912.76 1598.16 1910.1 1599.01 1907.18 1601.04C1904.25 1603.07 1900.9 1606.93 1897.11 1612.62L1894.61 1611.09C1895.98 1609.11 1897.87 1606.26 1900.3 1602.55C1902.66 1598.81 1905.07 1594.94 1907.52 1590.94C1912.48 1582.84 1916.13 1576.56 1918.47 1572.11L1920.97 1573.64C1918.09 1578.6 1916.53 1582.64 1916.29 1585.78C1916.05 1588.91 1916.66 1591.47 1918.13 1593.43C1919.58 1595.31 1921.41 1596.93 1923.63 1598.29L2007.17 1649.43ZM2028.8 1605.87L2025.99 1604.75C2027.78 1599.72 2028.83 1595.86 2029.13 1593.18C2029.36 1590.47 2028.73 1588.36 2027.23 1586.85C2025.73 1585.34 2023.28 1583.91 2019.9 1582.56L1945.14 1552.79C1941.63 1551.39 1938.84 1550.74 1936.78 1550.83C1934.71 1550.91 1932.86 1552.03 1931.23 1554.19C1929.54 1556.32 1927.62 1559.83 1925.46 1564.72L1922.74 1563.63C1925.1 1558.05 1928.11 1550.85 1931.78 1542C1935.4 1533.07 1939.57 1522.68 1944.3 1510.83C1946.13 1506.23 1948.33 1500.7 1950.91 1494.23C1953.43 1487.73 1955.65 1481.71 1957.57 1476.17C1964.11 1479.12 1973.56 1481.94 1985.95 1484.63L1984.79 1487.54C1977.79 1487.34 1972.08 1487.7 1967.66 1488.6C1963.17 1489.47 1959.57 1491.23 1956.84 1493.85C1954.07 1496.4 1951.69 1500.18 1949.69 1505.2L1938.27 1533.87L1986.36 1553.02L1992.25 1538.23C1995.04 1531.21 1995.42 1525.51 1993.38 1521.13C1991.35 1516.74 1986.81 1512.55 1979.78 1508.56L1980.76 1506.11C1986.6 1508.86 1991.06 1510.85 1994.15 1512.08C1997.26 1513.25 2000.2 1514.38 2002.99 1515.49C2004.2 1515.97 2005.6 1516.5 2007.2 1517.06C2008.73 1517.6 2010.95 1518.38 2013.84 1519.39C2016.69 1520.32 2020.68 1521.66 2025.79 1523.42L2024.78 1525.96C2019.04 1524.37 2014.35 1523.73 2010.72 1524.04C2007.12 1524.29 2004.13 1525.65 2001.74 1528.13C1999.31 1530.53 1997.08 1534.27 1995.06 1539.35L1989.17 1554.14L2025.46 1568.59C2029.09 1570.04 2031.93 1570.75 2033.97 1570.72C2036.01 1570.69 2037.77 1569.71 2039.24 1567.77C2040.68 1565.75 2042.28 1562.53 2044.03 1558.12L2046.64 1551.59C2049.94 1543.3 2051.68 1536.28 2051.86 1530.54C2052.07 1524.74 2050.52 1519.32 2047.2 1514.28C2043.81 1509.22 2038.46 1503.66 2031.14 1497.59L2032.26 1494.77C2039.53 1498.86 2045.96 1502.26 2051.53 1504.97C2057.07 1507.6 2062.05 1509.72 2066.45 1511.33C2064.11 1516.85 2061.56 1522.98 2058.81 1529.73C2056.01 1536.4 2052.89 1544.06 2049.45 1552.71C2044.73 1564.56 2040.66 1574.96 2037.24 1583.9C2033.76 1592.81 2030.94 1600.14 2028.8 1605.87ZM2089.85 1435.93C2088.27 1442.45 2086.1 1447.68 2083.33 1451.63C2080.51 1455.5 2077.9 1458.65 2075.5 1461.09C2073.04 1463.5 2071.56 1465.72 2071.07 1467.75C2070.66 1469.46 2071.05 1470.99 2072.26 1472.36C2073.41 1473.71 2075.84 1475.17 2079.54 1476.74L2078.83 1479.68C2075.87 1478.63 2071.14 1477.28 2064.64 1475.63C2058.15 1473.92 2049.21 1471.69 2037.83 1468.92L2038.56 1465.88C2051.22 1467.82 2061.75 1466.26 2070.15 1461.19C2078.49 1456.12 2083.95 1448.23 2086.55 1437.54C2088.55 1429.31 2088.14 1422.42 2085.34 1416.85C2082.54 1411.28 2077.31 1407.56 2069.66 1405.7C2065.1 1404.6 2061.18 1404.61 2057.89 1405.76C2054.59 1406.9 2051.29 1409.32 2047.99 1413C2044.62 1416.67 2040.66 1421.81 2036.11 1428.41C2030.52 1436.23 2025.54 1442.42 2021.14 1446.98C2016.75 1451.54 2012.43 1454.58 2008.18 1456.09C2003.93 1457.61 1999.24 1457.74 1994.11 1456.5C1985.07 1454.3 1978.64 1449.46 1974.83 1441.96C1970.96 1434.46 1970.3 1425.46 1972.85 1414.95C1974.2 1409.39 1975.92 1404.91 1978.01 1401.54C1980.12 1398.09 1982.09 1395.22 1983.92 1392.92C1985.76 1390.62 1986.95 1388.33 1987.5 1386.05C1987.92 1384.34 1987.84 1382.88 1987.26 1381.67C1986.7 1380.4 1985.04 1379.09 1982.28 1377.75L1983.02 1374.71C1985.31 1375.47 1987.89 1376.3 1990.76 1377.2C1993.64 1378.03 1997.28 1379.01 2001.7 1380.15C2006.11 1381.29 2011.83 1382.71 2018.85 1384.42L2018.14 1387.36C2007.04 1385.87 1997.87 1387.5 1990.62 1392.24C1983.31 1396.96 1978.5 1404.1 1976.18 1413.65C1974.36 1421.12 1974.74 1427.44 1977.3 1432.62C1979.8 1437.78 1984.5 1441.2 1991.39 1442.87C1995.25 1443.81 1998.81 1443.63 2002.07 1442.35C2005.35 1441 2008.79 1438.29 2012.39 1434.2C2015.95 1430.04 2020.12 1424.29 2024.92 1416.95C2032.39 1405.23 2039.34 1397.3 2045.77 1393.17C2052.14 1389.02 2059.34 1387.92 2067.37 1389.87C2077.18 1392.25 2084.09 1397.58 2088.11 1405.86C2092.15 1414.08 2092.73 1424.1 2089.85 1435.93Z" fill="white"/>
<path d="M673.731 761.813C663.727 773.603 652.753 782.008 640.809 787.029C628.855 791.935 616.729 793.332 604.431 791.222C592.072 789.06 580.338 783.266 569.231 773.841C557.627 763.995 549.614 752.873 545.191 740.476C540.707 728.026 539.805 715.253 542.485 702.158C545.217 689.001 551.533 676.589 561.431 664.924C566.96 658.408 572.733 653.114 578.75 649.041C584.767 644.968 590.184 641.666 595 639.136C599.806 636.49 603.078 634.143 604.816 632.096C606.606 629.986 607.297 627.851 606.889 625.69C606.419 623.477 604.948 620.682 602.478 617.304L604.926 614.419C607.427 616.754 610.238 619.353 613.359 622.215C616.419 625.025 620.342 628.514 625.129 632.683C629.907 636.737 636.113 642.002 643.745 648.478L641.218 651.457C626.385 643.781 612.396 641.463 599.25 644.503C586.095 647.429 574.436 654.88 564.274 666.856C552.428 680.817 547.903 695.709 550.701 711.531C553.498 727.353 563.336 742.424 580.215 756.746C597.217 771.172 613.897 778.495 630.254 778.714C646.55 778.879 660.674 771.919 672.626 757.834C682.051 746.726 686.98 736.074 687.415 725.876C687.902 715.617 684.423 707.328 676.976 701.01L671.578 696.429C667.668 693.112 664.269 691.081 661.379 690.336C658.541 689.53 655.618 690.144 652.609 692.181C649.539 694.165 645.787 697.705 641.355 702.803L638.469 700.355C639.953 698.732 642.495 695.926 646.094 691.935C649.693 687.945 653.993 683.003 658.995 677.108C662.944 672.454 666.415 668.301 669.407 664.649C672.336 660.945 674.818 657.768 676.853 655.119L679.739 657.567C676.818 661.386 674.931 664.428 674.077 666.692C673.224 668.956 673.486 671.099 674.864 673.123C676.243 675.146 678.824 677.763 682.609 680.975L716.769 709.96L714.321 712.846C707.969 710.018 703.292 710.372 700.291 713.909C698.238 716.329 696.367 719.918 694.678 724.675C693.042 729.37 690.695 734.903 687.637 741.274C684.632 747.583 679.997 754.429 673.731 761.813ZM729.499 692.152L727.19 689.154C732.327 684.888 735.912 681.407 737.944 678.711C739.927 675.951 740.592 673.281 739.94 670.701C739.288 668.122 737.572 665.027 734.791 661.417L673.403 581.735C670.522 577.996 667.943 575.515 665.664 574.291C663.386 573.067 660.684 573.094 657.559 574.371C654.385 575.584 650.08 578.131 644.644 582.01L642.409 579.109C648.504 574.619 656.34 568.788 665.916 561.616C675.506 554.33 686.62 545.819 699.255 536.085C704.155 532.31 710.053 527.766 716.951 522.451C723.8 517.072 730.025 512.019 735.629 507.291C740.77 514.631 749.14 523.695 760.739 534.483L757.644 536.867C750.243 532.194 743.877 528.931 738.546 527.079C733.166 525.163 728.172 524.748 723.563 525.833C718.969 526.804 713.997 529.35 708.646 533.473L678.089 557.014L717.573 608.266L733.335 596.122C740.814 590.361 744.856 584.473 745.461 578.459C746.067 572.445 743.864 565.051 738.851 556.277L741.462 554.266C745.992 560.946 749.523 565.93 752.056 569.218C754.654 572.456 757.095 575.558 759.379 578.523C760.373 579.813 761.547 581.271 762.903 582.897C764.209 584.459 766.094 586.705 768.557 589.636C771.035 592.452 774.464 596.437 778.844 601.589L776.137 603.675C770.973 598.305 766.343 594.629 762.248 592.647C758.217 590.616 754.126 590.173 749.974 591.317C745.836 592.347 741.06 594.948 735.645 599.12L719.883 611.264L749.682 649.944C752.662 653.812 755.259 656.383 757.473 657.656C759.687 658.93 762.203 658.995 765.02 657.851C767.853 656.594 771.622 654.152 776.328 650.527L783.29 645.163C792.122 638.359 798.469 631.928 802.33 625.872C806.255 619.766 808.038 612.947 807.681 605.415C807.273 597.819 805.068 588.423 801.065 577.227L804.063 574.918C809.275 583.949 814.014 591.701 818.281 598.173C822.563 604.531 826.556 609.981 830.261 614.523C824.231 618.964 817.581 623.933 810.311 629.431C803.056 634.815 794.819 641.058 785.6 648.161C772.964 657.895 761.958 666.477 752.581 673.907C743.154 681.273 735.46 687.354 729.499 692.152ZM928.277 570.576L924.054 572.496L809.484 476.812L807.928 477.519L853.195 577.087C855.283 581.681 857.533 584.859 859.944 586.624C862.429 588.355 865.706 588.876 869.774 588.189C873.882 587.394 879.503 585.599 886.635 582.803L888.201 586.248C885.911 587.11 882.416 588.565 877.715 590.613C872.98 592.587 867.464 595.005 861.167 597.868C855.759 600.327 850.977 602.59 846.822 604.658C842.633 606.652 839.387 608.262 837.083 609.488L835.517 606.043C841.457 602.985 845.781 600.304 848.488 598C851.27 595.663 852.677 593.056 852.711 590.18C852.785 587.197 851.761 583.371 849.639 578.704L808.717 488.693C806.831 484.544 804.881 481.631 802.867 479.954C800.927 478.244 798.199 477.651 794.684 478.177C791.168 478.702 786.12 480.282 779.54 482.916L778.025 479.582C780.752 478.7 784.281 477.319 788.612 475.439C792.983 473.452 797.984 471.179 803.614 468.619C810.874 465.318 816.013 462.759 819.03 460.94L924.022 551.19L920.376 414.865C922.882 414.084 925.559 413.09 928.408 411.884C931.223 410.604 934.038 409.325 936.853 408.045C942.632 405.418 947.912 402.972 952.693 400.709C957.516 398.338 961.078 396.54 963.382 395.314L964.897 398.647C958.661 401.84 954.152 404.605 951.37 406.943C948.663 409.246 947.279 411.708 947.219 414.328C947.232 416.914 948.182 420.282 950.068 424.43L991.697 515.997C993.55 520.072 995.5 522.985 997.547 524.736C999.561 526.413 1002.33 526.988 1005.84 526.463C1009.43 525.904 1014.44 524.341 1020.87 521.774L1022.44 525.219C1019.19 526.519 1014.95 528.311 1009.73 530.594C1004.48 532.804 998.555 535.407 991.962 538.405C985.22 541.47 979.364 544.222 974.394 546.66C969.464 548.991 965.588 550.887 962.766 552.349L961.2 548.904C967.059 546.061 971.319 543.633 973.979 541.619C976.606 539.531 977.912 537.194 977.899 534.607C977.851 531.947 976.783 528.32 974.695 523.727L926.145 416.936L924.478 417.694L928.277 570.576ZM1079.28 516.18C1071.08 517.949 1064.01 518.352 1058.06 517.389C1052.17 516.329 1047.2 515.112 1043.16 513.737C1039.1 512.282 1035.79 511.83 1033.25 512.379C1031.1 512.843 1029.59 514.127 1028.71 516.231C1027.82 518.256 1027.49 521.781 1027.75 526.805L1024.05 527.603C1023.62 523.699 1022.56 517.642 1020.87 509.431C1019.26 501.204 1016.91 489.93 1013.82 475.612L1017.64 474.788C1022.36 490.087 1029.85 501.082 1040.12 507.774C1050.38 514.385 1062.22 516.24 1075.67 513.338C1086.01 511.105 1093.55 506.896 1098.29 500.711C1103.03 494.525 1104.37 486.62 1102.29 476.994C1101.05 471.267 1098.89 466.862 1095.81 463.781C1092.73 460.699 1088.22 458.302 1082.27 456.589C1076.31 454.796 1068.37 453.137 1058.47 451.612C1046.63 449.589 1036.94 447.351 1029.42 444.895C1021.9 442.44 1016.13 439.232 1012.11 435.271C1008.09 431.309 1005.38 426.107 1003.99 419.664C1001.54 408.288 1003.49 398.418 1009.84 390.053C1016.17 381.609 1025.94 375.961 1039.15 373.11C1046.15 371.599 1052.12 371.101 1057.06 371.617C1062.08 372.115 1066.38 372.768 1069.97 373.575C1073.56 374.382 1076.78 374.477 1079.65 373.859C1081.8 373.395 1083.39 372.509 1084.44 371.2C1085.57 369.874 1086.14 367.295 1086.15 363.464L1089.96 362.64C1090.36 365.635 1090.84 368.988 1091.39 372.698C1092.02 376.392 1092.89 381.031 1094.02 386.617C1095.14 392.202 1096.65 399.41 1098.56 408.24L1094.86 409.038C1090.49 395.745 1083.67 386.311 1074.39 380.738C1065.09 375.086 1054.44 373.556 1042.43 376.149C1033.04 378.176 1026.13 382.04 1021.7 387.742C1017.26 393.364 1015.97 400.511 1017.84 409.181C1018.89 414.034 1021.02 417.944 1024.24 420.912C1027.54 423.862 1032.47 426.253 1039.03 428.085C1045.65 429.82 1054.39 431.386 1065.27 432.785C1082.52 434.805 1095.23 438.307 1103.38 443.29C1111.51 448.195 1116.67 455.698 1118.85 465.8C1121.52 478.13 1119.28 488.811 1112.16 497.842C1105.11 506.856 1094.15 512.969 1079.28 516.18ZM1215.7 503.69C1195.6 504.049 1180.2 498.178 1169.48 486.079C1158.85 473.978 1153.32 456.211 1152.9 432.777L1151.97 380.295C1151.88 375.576 1151.21 372.047 1149.95 369.709C1148.68 367.371 1146.21 365.788 1142.54 364.958C1138.94 364.127 1133.52 363.613 1126.27 363.417L1126.21 359.755C1129.55 359.858 1134.1 359.94 1139.88 360C1145.66 359.978 1152.62 359.895 1160.76 359.749C1169.38 359.596 1176.66 359.425 1182.6 359.238C1188.62 358.968 1193.13 358.725 1196.14 358.508L1196.21 362.17C1188.89 362.626 1183.37 363.335 1179.64 364.296C1175.99 365.175 1173.58 366.806 1172.4 369.187C1171.22 371.487 1170.68 375.078 1170.76 379.96L1171.79 437.446C1172.12 455.916 1176.33 470.614 1184.42 481.539C1192.59 492.382 1204.28 497.667 1219.5 497.396C1236.75 497.089 1249.79 491.24 1258.62 479.85C1267.53 468.459 1271.8 452.267 1271.43 431.274L1270.52 380.501C1270.43 375.294 1269.58 371.361 1267.99 368.704C1266.4 366.046 1263.64 364.223 1259.71 363.235C1255.87 362.164 1250.4 361.529 1243.32 361.33L1243.25 357.668C1245.7 357.706 1249.28 357.764 1254 357.843C1258.72 357.922 1264.54 357.899 1271.46 357.776C1278.7 357.647 1284.6 357.46 1289.15 357.216C1293.79 356.971 1297.24 356.787 1299.52 356.665L1299.58 360.327C1292.67 360.775 1287.36 361.562 1283.63 362.687C1279.99 363.81 1277.5 365.685 1276.16 368.314C1274.91 370.941 1274.32 374.736 1274.41 379.699L1275.3 429.374C1275.72 452.971 1270.92 471.166 1260.89 483.961C1250.94 496.754 1235.88 503.331 1215.7 503.69ZM1333.66 506.405L1334.42 502.697C1344.37 504.398 1351.63 505.05 1356.2 504.654C1360.86 504.195 1364.02 502.763 1365.67 500.36C1367.34 497.877 1368.61 494.483 1369.49 490.177L1392.58 377.155L1373.33 373.221C1367.27 371.983 1361.57 371.816 1356.24 372.72C1350.9 373.624 1345.39 376.61 1339.7 381.677C1334.11 386.682 1327.72 394.803 1320.52 406.041L1316.82 405.284C1320.8 394.719 1323.77 386.065 1325.73 379.322C1327.69 372.579 1328.97 366.112 1329.57 359.922C1339.51 362.118 1350.76 364.582 1363.32 367.315C1375.98 369.984 1389.01 372.687 1402.41 375.424C1409.34 376.841 1417.04 378.413 1425.49 380.139C1433.94 381.866 1442.48 383.569 1451.11 385.248C1459.75 386.848 1467.84 388.334 1475.36 389.705C1473.83 394.79 1472.56 401.177 1471.58 408.866C1470.6 416.475 1469.97 425.689 1469.67 436.509L1465.84 435.727C1463.31 422.087 1460.33 411.844 1456.92 404.999C1453.51 398.074 1449.59 393.286 1445.15 390.634C1440.72 387.903 1435.64 385.951 1429.9 384.778L1410.76 380.869L1387.67 493.891C1386.79 498.197 1386.64 501.819 1387.2 504.758C1387.78 507.617 1390.12 510.172 1394.23 512.424C1398.43 514.612 1405.37 516.859 1415.03 519.165L1414.27 522.872C1409.44 521.719 1403.56 520.394 1396.64 518.898C1389.74 517.321 1382.46 515.751 1374.81 514.187C1365.88 512.363 1357.89 510.814 1350.84 509.54C1343.8 508.186 1338.08 507.141 1333.66 506.405ZM1529.76 570.217C1513.7 562.878 1500.98 553.801 1491.61 542.986C1482.3 532.205 1476.72 520.347 1474.84 507.412C1473 494.403 1475.26 480.941 1481.62 467.025C1487.88 453.331 1496.58 442.902 1507.73 435.738C1518.95 428.607 1531.75 424.972 1546.13 424.832C1560.54 424.618 1575.71 428.146 1591.62 435.418C1607.76 442.791 1620.51 451.885 1629.89 462.699C1639.29 473.44 1644.92 485.315 1646.76 498.324C1648.63 511.259 1646.39 524.684 1640.03 538.6C1633.77 552.294 1625.06 562.76 1613.87 569.998C1602.73 577.163 1589.91 580.835 1575.42 581.015C1561.04 581.155 1545.82 577.556 1529.76 570.217ZM1530.62 566.582C1543.2 572.331 1555.28 574.675 1566.86 573.613C1578.47 572.478 1588.96 568.232 1598.31 560.875C1607.74 553.553 1615.44 543.377 1621.39 530.35C1627.44 517.101 1630.06 504.518 1629.24 492.602C1628.5 480.72 1624.79 470.125 1618.13 460.817C1611.54 451.544 1602.47 444.269 1590.93 438.993C1578.49 433.311 1566.43 431.021 1554.74 432.123C1543.16 433.184 1532.62 437.359 1523.12 444.648C1513.69 451.971 1506 462.146 1500.04 475.173C1493.99 488.423 1491.32 501.026 1492.03 512.982C1492.77 524.864 1496.48 535.459 1503.14 544.766C1509.84 554 1518.99 561.272 1530.62 566.582ZM1615.66 606.714L1617.92 603.679C1623.53 607.453 1627.92 610.009 1631.08 611.35C1634.29 612.625 1637.06 612.656 1639.38 611.444C1641.75 610.166 1644.35 607.635 1647.17 603.849L1707.25 523.177C1710.07 519.391 1711.75 516.179 1712.29 513.54C1712.89 510.837 1712.11 508.129 1709.97 505.418C1707.88 502.642 1704.12 499.237 1698.71 495.203L1700.89 492.265C1703 493.935 1706.12 496.357 1710.24 499.534C1714.42 502.645 1719.48 506.412 1725.42 510.835C1732.21 515.89 1738.37 520.427 1743.9 524.444C1749.49 528.511 1753.5 531.443 1755.92 533.242C1770.54 544.13 1779.77 555.37 1783.62 566.962C1787.51 578.488 1785.45 589.636 1777.43 600.406C1769.51 611.045 1758.65 616.151 1744.87 615.726C1731.14 615.349 1716.58 609.425 1701.18 597.954C1698.7 596.106 1695.98 593.829 1693.02 591.121C1690.18 588.396 1687.77 585.841 1685.8 583.455L1662.25 615.077C1659.43 618.863 1657.81 622.124 1657.4 624.859C1657.1 627.579 1658.28 630.488 1660.94 633.588C1663.65 636.622 1668.05 640.603 1674.12 645.531L1671.86 648.566C1669.34 646.491 1665.66 643.598 1660.82 639.887C1656.02 636.111 1650 631.525 1642.75 626.13C1636.16 621.22 1630.56 617.154 1625.96 613.93C1621.48 610.69 1618.04 608.285 1615.66 606.714ZM1732.61 520.601L1687.98 580.518C1690.04 583.066 1692.43 585.654 1695.14 588.282C1697.9 590.844 1700.13 592.757 1701.82 594.021C1713.7 602.867 1724.57 606.802 1734.43 605.825C1744.41 604.831 1753.11 599.341 1760.55 589.354C1768.71 578.389 1771.84 568.336 1769.92 559.196C1768 550.055 1761.02 541.102 1748.98 532.338L1732.61 520.601ZM1721.17 686.153L1723.85 683.473C1729.09 688.24 1733.24 691.513 1736.29 693.291C1739.4 695.127 1742.19 695.612 1744.67 694.744C1747.2 693.819 1750.1 691.714 1753.37 688.428L1824.38 617.18C1827.71 613.837 1829.8 610.927 1830.66 608.451C1831.52 605.976 1831.03 603.186 1829.18 600.081C1827.39 597.035 1824.1 592.897 1819.32 587.669L1821.9 585.075C1824.27 587.66 1827.44 591.05 1831.42 595.244C1835.45 599.38 1840.09 604.062 1845.34 609.289C1850.35 614.287 1855.02 618.883 1859.35 623.076C1863.78 627.269 1867.33 630.572 1869.98 632.984L1867.39 635.578C1862.15 630.811 1857.97 627.509 1854.86 625.673C1851.75 623.837 1848.96 623.353 1846.49 624.22C1844.01 625.088 1841.11 627.193 1837.78 630.536L1766.78 701.784C1763.44 705.127 1761.35 708.037 1760.49 710.513C1759.63 712.989 1760.13 715.779 1761.97 718.883C1763.82 721.987 1767.14 726.154 1771.92 731.382L1769.25 734.062C1766.83 731.419 1763.48 727.915 1759.22 723.549C1755.07 719.183 1750.48 714.501 1745.47 709.503C1740.22 704.276 1735.5 699.68 1731.29 695.717C1727.14 691.696 1723.77 688.508 1721.17 686.153ZM1768.49 731.919L1771.56 729.703C1775.75 734.401 1779.97 737.732 1784.2 739.696C1788.43 741.66 1793.65 742.006 1799.86 740.733L1933.87 713.197L1937.44 718.144L1869.03 840.45C1866.64 844.786 1865.62 849.139 1865.96 853.507C1866.31 857.876 1868.22 862.819 1871.7 868.334L1868.64 870.55C1866.19 866.893 1863.48 862.929 1860.5 858.659C1857.63 854.408 1854.67 850.172 1851.62 845.95C1847 839.551 1842.78 833.859 1838.98 828.875C1835.29 823.909 1832.34 820.022 1830.11 817.215L1833.17 814.999C1839.98 824.139 1845.17 829.026 1848.74 829.66C1852.31 830.294 1855.89 827.403 1859.49 820.989L1876.66 790.359L1837.99 736.826L1830.05 738.344C1814.78 741.245 1805.04 745.97 1800.84 752.521C1796.75 759.089 1798 766.722 1804.58 775.418L1801.51 777.634C1799.39 774.552 1796.68 770.589 1793.38 765.744C1790.12 760.965 1786.71 756.101 1783.14 751.154C1781.14 748.383 1779.14 745.759 1777.15 743.281C1775.27 740.822 1772.39 737.035 1768.49 731.919ZM1842.13 736.094L1878.8 786.857L1918.75 720.203L1842.13 736.094Z" fill="white"/>
</svg>
