<svg width="512" height="512" viewBox="0 0 512 512" fill="none" xmlns="http://www.w3.org/2000/svg">
<circle cx="256" cy="256" r="256" fill="black"/>
<circle cx="255.5" cy="255.5" r="171" stroke="white" stroke-width="5"/>
<path d="M302.524 138.873L303.326 139.767L304.525 139.701L375.206 135.793L371.299 206.474L371.232 207.675L372.127 208.475L424.869 255.691L372.127 302.907L371.232 303.709L371.299 304.908L375.206 375.589L304.525 371.681L303.326 371.615L302.524 372.51L255.309 425.252L208.093 372.51L207.292 371.615L206.092 371.681L135.41 375.589L139.318 304.908L139.385 303.709L138.49 302.907L85.748 255.691L138.49 208.475L139.385 207.675L139.318 206.474L135.41 135.793L206.092 139.701L207.292 139.767L208.093 138.873L255.309 86.1306L302.524 138.873Z" stroke="white" stroke-width="5"/>
<path d="M254.691 163.501L255.772 164.025L256.856 163.509L303.12 141.507L319.888 189.915L320.281 191.05L321.412 191.452L369.682 208.608L347.31 254.693L346.786 255.774L347.302 256.859L369.303 303.123L320.896 319.891L319.761 320.284L319.358 321.415L302.201 369.685L256.117 347.313L255.037 346.789L253.952 347.305L207.687 369.306L190.92 320.899L190.527 319.764L189.396 319.361L141.124 302.204L163.498 256.119L164.022 255.039L163.506 253.955L141.504 207.69L189.912 190.923L191.047 190.53L191.449 189.399L208.605 141.128L254.691 163.501Z" stroke="white" stroke-width="5"/>
<path d="M319.397 191.214L345.946 255.308L319.396 319.403L255.302 345.953L191.208 319.404L164.658 255.308L191.208 191.214L255.302 164.665L319.397 191.214Z" stroke="white" stroke-width="5"/>
<path d="M302.383 370.847L322.829 412.484" stroke="white" stroke-width="5"/>
<path d="M207.3 370.848L189.319 412.165" stroke="white" stroke-width="5"/>
<path d="M143.303 300.8L101.901 322.201" stroke="white" stroke-width="5"/>
<path d="M368.57 302.366L411.211 321.499" stroke="white" stroke-width="5"/>
<path d="M141.195 207.106L99.9531 189.705" stroke="white" stroke-width="5"/>
<path d="M208.46 140.946L187.398 101.007" stroke="white" stroke-width="5"/>
<path d="M303.176 143.716L322.243 99.981" stroke="white" stroke-width="5"/>
<path d="M370.272 208.855L412.448 192.184" stroke="white" stroke-width="5"/>
</svg>
