<svg width="347" height="347" viewBox="0 0 347 347" fill="none" xmlns="http://www.w3.org/2000/svg">
<circle cx="173.5" cy="173.5" r="171" stroke="white" stroke-width="5"/>
<path d="M220.524 56.8728L221.326 57.7673L222.525 57.7009L293.206 53.7927L289.299 124.474L289.232 125.675L290.127 126.475L342.869 173.691L290.127 220.907L289.232 221.709L289.299 222.908L293.206 293.589L222.525 289.681L221.326 289.615L220.524 290.51L173.309 343.252L126.093 290.51L125.292 289.615L124.092 289.681L53.4102 293.589L57.3184 222.908L57.3848 221.709L56.4902 220.907L3.74805 173.691L56.4902 126.475L57.3848 125.675L57.3184 124.474L53.4102 53.7927L124.092 57.7009L125.292 57.7673L126.093 56.8728L173.309 4.13062L220.524 56.8728Z" stroke="white" stroke-width="5"/>
<path d="M172.691 81.5007L173.772 82.0247L174.856 81.5088L221.12 59.5074L237.888 107.915L238.281 109.05L239.412 109.452L287.682 126.608L265.31 172.693L264.786 173.774L265.302 174.859L287.303 221.123L238.896 237.891L237.761 238.284L237.358 239.415L220.201 287.685L174.117 265.313L173.037 264.789L171.952 265.305L125.687 287.306L108.92 238.899L108.527 237.764L107.396 237.361L59.1245 220.204L81.4976 174.119L82.0219 173.039L81.506 171.955L59.5043 125.69L107.912 108.923L109.047 108.53L109.449 107.399L126.605 59.1279L172.691 81.5007Z" stroke="white" stroke-width="5"/>
<path d="M237.397 109.214L263.946 173.308L237.396 237.403L173.302 263.953L109.208 237.404L82.6582 173.308L109.208 109.214L173.302 82.6646L237.397 109.214Z" stroke="white" stroke-width="5"/>
<path d="M220.383 288.847L240.829 330.484" stroke="white" stroke-width="5"/>
<path d="M125.3 288.848L107.319 330.165" stroke="white" stroke-width="5"/>
<path d="M61.3029 218.8L19.9007 240.201" stroke="white" stroke-width="5"/>
<path d="M286.57 220.366L329.211 239.499" stroke="white" stroke-width="5"/>
<path d="M59.1952 125.106L17.9531 107.705" stroke="white" stroke-width="5"/>
<path d="M126.46 58.9462L105.398 19.0066" stroke="white" stroke-width="5"/>
<path d="M221.176 61.7158L240.243 17.981" stroke="white" stroke-width="5"/>
<path d="M288.272 126.855L330.448 110.184" stroke="white" stroke-width="5"/>
</svg>
