<svg width="3121" height="400" viewBox="0 0 3121 400" fill="none" xmlns="http://www.w3.org/2000/svg">
<g clip-path="url(#clip0_368_108)">
<mask id="mask0_368_108" style="mask-type:luminance" maskUnits="userSpaceOnUse" x="0" y="0" width="3121" height="400">
<path d="M3121 0H0V400H3121V0Z" fill="white"/>
</mask>
<g mask="url(#mask0_368_108)">
<path d="M598.633 304.492C573.893 304.492 552.279 299.805 533.789 290.43C515.43 280.924 501.172 267.578 491.016 250.391C480.859 233.073 475.781 212.76 475.781 189.453C475.781 165.104 481.055 143.815 491.602 125.586C502.148 107.227 516.797 92.9036 535.547 82.6172C554.427 72.3307 576.107 67.1875 600.586 67.1875C614.258 67.1875 626.693 68.75 637.891 71.875C649.089 75 658.724 78.1901 666.797 81.4453C675 84.5703 681.25 86.1328 685.547 86.1328C689.974 86.1328 693.294 84.7656 695.508 82.0312C697.721 79.1667 699.609 74.4792 701.172 67.9688H707.227C706.966 73.4375 706.706 79.5573 706.445 86.3281C706.185 92.9688 705.99 101.367 705.859 111.523C705.859 121.549 705.859 134.57 705.859 150.586H699.609C693.62 124.544 681.966 105.078 664.648 92.1875C647.461 79.1667 626.302 72.6562 601.172 72.6562C571.875 72.6562 549.023 82.5521 532.617 102.344C516.211 122.135 508.008 149.74 508.008 185.156C508.008 220.833 516.341 248.763 533.008 268.945C549.674 288.997 572.786 299.023 602.344 299.023C625.651 299.023 643.75 294.01 656.641 283.984C669.661 273.958 676.172 261.133 676.172 245.508V234.18C676.172 225.977 675.13 219.727 673.047 215.43C671.094 211.133 667.318 208.203 661.719 206.641C656.12 204.948 647.917 204.036 637.109 203.906V197.852C640.625 197.982 646.68 198.177 655.273 198.438C663.867 198.698 674.349 198.828 686.719 198.828C696.484 198.828 705.143 198.763 712.695 198.633C720.247 198.372 726.693 198.112 732.031 197.852V203.906C724.349 204.297 718.685 205.143 715.039 206.445C711.393 207.747 709.049 210.286 708.008 214.062C706.966 217.839 706.445 223.698 706.445 231.641V303.32H700.391C697.266 292.643 691.992 287.305 684.57 287.305C679.492 287.305 673.177 288.737 665.625 291.602C658.203 294.466 649.023 297.331 638.086 300.195C627.279 303.06 614.128 304.492 598.633 304.492ZM771.68 300V293.945C782.357 293.555 790.299 292.643 795.508 291.211C800.716 289.648 804.167 286.914 805.859 283.008C807.552 279.102 808.398 273.503 808.398 266.211V105.273C808.398 97.7214 807.552 92.0573 805.859 88.2812C804.167 84.5052 800.716 81.901 795.508 80.4688C790.299 78.9062 782.357 77.9297 771.68 77.5391V71.6797C783.789 71.9401 799.414 72.2005 818.555 72.4609C837.826 72.5911 860.221 72.6562 885.742 72.6562C895.638 72.6562 907.552 72.6562 921.484 72.6562C935.417 72.526 948.242 72.2005 959.961 71.6797C959.31 86.0026 961.068 105.664 965.234 130.664H958.984C954.167 117.513 949.284 107.161 944.336 99.6094C939.388 91.9271 933.464 86.5234 926.562 83.3984C919.792 80.1432 911.003 78.5156 900.195 78.5156H838.477V182.031H870.312C885.417 182.031 896.289 178.516 902.93 171.484C909.57 164.453 913.997 152.93 916.211 136.914H921.484C920.703 149.805 920.312 159.57 920.312 166.211C920.443 172.852 920.508 179.167 920.508 185.156C920.508 187.76 920.573 190.755 920.703 194.141C920.833 197.396 921.029 202.083 921.289 208.203C921.68 214.193 922.135 222.591 922.656 233.398H917.188C915.885 221.549 913.607 212.37 910.352 205.859C907.227 199.349 902.474 194.792 896.094 192.188C889.844 189.453 881.25 188.086 870.312 188.086H838.477V266.211C838.477 274.023 839.258 279.818 840.82 283.594C842.383 287.37 845.508 289.909 850.195 291.211C855.013 292.383 862.174 292.969 871.68 292.969H885.742C903.581 292.969 917.904 291.016 928.711 287.109C939.648 283.203 948.568 276.302 955.469 266.406C962.37 256.38 968.75 242.318 974.609 224.219H980.664C978.451 240.755 976.888 255.208 975.977 267.578C975.195 279.818 974.935 290.625 975.195 300C963.216 299.74 949.935 299.544 935.352 299.414C920.898 299.154 904.362 299.023 885.742 299.023C860.221 299.023 837.891 299.154 818.75 299.414C799.609 299.544 783.919 299.74 771.68 300ZM1180.08 303.711H1172.66L1069.14 88.4766H1066.41V263.477C1066.41 271.549 1067.58 277.669 1069.92 281.836C1072.4 286.003 1076.82 288.932 1083.2 290.625C1089.71 292.188 1099.09 293.294 1111.33 293.945V300C1107.42 299.74 1101.37 299.544 1093.16 299.414C1084.96 299.154 1075.33 299.023 1064.26 299.023C1054.75 299.023 1046.29 299.154 1038.87 299.414C1031.45 299.544 1025.65 299.74 1021.48 300V293.945C1032.16 293.424 1040.23 292.383 1045.7 290.82C1051.3 289.258 1055.08 286.393 1057.03 282.227C1059.11 277.93 1060.16 271.68 1060.16 263.477V105.273C1060.16 97.9818 1059.24 92.4479 1057.42 88.6719C1055.73 84.8958 1052.15 82.2266 1046.68 80.6641C1041.21 79.1016 1032.81 78.0599 1021.48 77.5391V71.6797C1026.04 72.2005 1032.1 72.526 1039.65 72.6562C1047.33 72.6562 1056.12 72.6562 1066.02 72.6562C1078.78 72.6562 1087.96 72.3307 1093.55 71.6797L1186.72 272.656L1271.68 71.6797C1275.85 72.2005 1280.4 72.526 1285.35 72.6562C1290.3 72.6562 1295.25 72.6562 1300.2 72.6562C1310.35 72.6562 1319.66 72.5911 1328.12 72.4609C1336.72 72.2005 1343.1 71.9401 1347.27 71.6797V77.5391C1336.07 78.0599 1327.67 79.1016 1322.07 80.6641C1316.6 82.2266 1312.96 84.8958 1311.13 88.6719C1309.44 92.4479 1308.59 97.9818 1308.59 105.273V266.211C1308.59 273.372 1309.51 278.906 1311.33 282.812C1313.15 286.589 1316.8 289.258 1322.27 290.82C1327.86 292.383 1336.2 293.424 1347.27 293.945V300C1341.67 299.74 1334.31 299.544 1325.2 299.414C1316.08 299.154 1305.73 299.023 1294.14 299.023C1282.29 299.023 1271.94 299.154 1263.09 299.414C1254.36 299.544 1247.46 299.74 1242.38 300V293.945C1252.8 293.685 1260.61 292.969 1265.82 291.797C1271.03 290.495 1274.48 287.956 1276.17 284.18C1277.86 280.273 1278.71 274.284 1278.71 266.211V78.5156H1275.78L1180.08 303.711ZM1470.31 304.492C1456.9 304.492 1445.7 302.734 1436.72 299.219C1427.86 295.573 1420.51 291.992 1414.65 288.477C1408.79 284.831 1403.78 283.008 1399.61 283.008C1396.09 283.008 1393.29 284.505 1391.21 287.5C1389.13 290.365 1387.43 295.768 1386.13 303.711H1380.08C1380.73 297.461 1381.12 287.63 1381.25 274.219C1381.51 260.807 1381.64 242.383 1381.64 218.945H1387.89C1390.1 244.466 1398.11 264.193 1411.91 278.125C1425.72 291.927 1443.62 298.828 1465.62 298.828C1482.55 298.828 1495.77 294.792 1505.27 286.719C1514.78 278.646 1519.53 266.732 1519.53 250.977C1519.53 241.602 1517.64 233.984 1513.87 228.125C1510.09 222.266 1503.84 216.992 1495.12 212.305C1486.39 207.487 1474.54 202.214 1459.57 196.484C1441.73 189.323 1427.34 182.552 1416.41 176.172C1405.47 169.792 1397.53 162.826 1392.58 155.273C1387.63 147.721 1385.16 138.672 1385.16 128.125C1385.16 109.505 1391.54 94.7266 1404.3 83.7891C1417.06 72.7214 1434.24 67.1875 1455.86 67.1875C1467.32 67.1875 1476.82 68.4245 1484.38 70.8984C1492.06 73.3724 1498.57 75.8464 1503.91 78.3203C1509.24 80.7943 1514.26 82.0312 1518.95 82.0312C1522.46 82.0312 1525.26 81.1849 1527.34 79.4922C1529.56 77.7995 1531.32 73.9583 1532.62 67.9688H1538.87C1538.48 72.7865 1538.09 78.1901 1537.7 84.1797C1537.43 90.1693 1537.24 97.7214 1537.11 106.836C1536.98 115.951 1536.91 127.734 1536.91 142.188H1530.86C1528.52 119.922 1521.03 102.865 1508.4 91.0156C1495.77 79.0365 1479.62 73.0469 1459.96 73.0469C1444.6 73.0469 1432.49 76.7578 1423.63 84.1797C1414.78 91.4714 1410.35 102.214 1410.35 116.406C1410.35 124.349 1412.37 131.185 1416.41 136.914C1420.57 142.643 1427.47 148.047 1437.11 153.125C1446.88 158.073 1460.03 163.477 1476.56 169.336C1502.86 178.32 1521.55 188.086 1532.62 198.633C1543.68 209.049 1549.22 222.526 1549.22 239.062C1549.22 259.245 1542.12 275.195 1527.93 286.914C1513.87 298.633 1494.66 304.492 1470.31 304.492ZM1718.95 304.492C1686.78 304.492 1662.3 294.661 1645.51 275C1628.84 255.339 1620.51 226.758 1620.51 189.258V105.273C1620.51 97.7214 1619.53 92.0573 1617.58 88.2812C1615.62 84.5052 1611.72 81.901 1605.86 80.4688C1600.13 79.0365 1591.47 78.0599 1579.88 77.5391V71.6797C1585.22 71.9401 1592.51 72.2005 1601.76 72.4609C1611 72.5911 1622.14 72.6562 1635.16 72.6562C1648.96 72.6562 1660.61 72.5911 1670.12 72.4609C1679.75 72.2005 1686.98 71.9401 1691.8 71.6797V77.5391C1680.08 78.0599 1671.22 79.0365 1665.23 80.4688C1659.38 81.7708 1655.47 84.3099 1653.52 88.0859C1651.56 91.7318 1650.59 97.4609 1650.59 105.273V197.266C1650.59 226.823 1656.9 250.456 1669.53 268.164C1682.29 285.742 1700.85 294.531 1725.2 294.531C1752.8 294.531 1773.83 285.547 1788.28 267.578C1802.86 249.609 1810.16 223.828 1810.16 190.234V108.984C1810.16 100.651 1808.92 94.3359 1806.45 90.0391C1803.97 85.7422 1799.61 82.7474 1793.36 81.0547C1787.24 79.2318 1778.52 78.0599 1767.19 77.5391V71.6797C1771.09 71.8099 1776.82 72.0052 1784.38 72.2656C1791.93 72.526 1801.24 72.6562 1812.3 72.6562C1823.89 72.6562 1833.33 72.526 1840.62 72.2656C1848.05 72.0052 1853.58 71.8099 1857.23 71.6797V77.5391C1846.16 78.0599 1837.63 79.1667 1831.64 80.8594C1825.78 82.5521 1821.74 85.4818 1819.53 89.6484C1817.45 93.8151 1816.41 99.8698 1816.41 107.812V187.305C1816.41 225.065 1808.2 254.036 1791.8 274.219C1775.52 294.401 1751.24 304.492 1718.95 304.492ZM1940.43 300V293.945C1956.58 293.424 1968.16 292.122 1975.2 290.039C1982.36 287.826 1986.85 284.57 1988.67 280.273C1990.49 275.846 1991.41 270.117 1991.41 263.086V78.5156H1959.96C1950.07 78.5156 1941.08 80.0781 1933.01 83.2031C1924.93 86.3281 1917.25 92.7734 1909.96 102.539C1902.8 112.174 1895.38 126.953 1887.7 146.875H1881.64C1884.51 129.036 1886.39 114.518 1887.3 103.32C1888.22 92.1224 1888.15 81.5755 1887.11 71.6797C1903.39 71.9401 1921.81 72.2005 1942.38 72.4609C1963.09 72.5911 1984.38 72.6562 2006.25 72.6562C2017.58 72.6562 2030.14 72.6562 2043.95 72.6562C2057.75 72.6562 2071.68 72.5911 2085.74 72.4609C2099.8 72.2005 2112.96 71.9401 2125.2 71.6797C2124.41 80.1432 2124.48 90.5599 2125.39 102.93C2126.3 115.169 2128.26 129.818 2131.25 146.875H2125C2116.67 126.302 2108.72 111.198 2101.17 101.562C2093.62 91.7969 2085.94 85.5469 2078.12 82.8125C2070.31 79.9479 2061.72 78.5156 2052.34 78.5156H2021.09V263.086C2021.09 270.117 2022.01 275.846 2023.83 280.273C2025.65 284.57 2030.14 287.826 2037.3 290.039C2044.6 292.122 2056.18 293.424 2072.07 293.945V300C2064.13 299.74 2054.49 299.544 2043.16 299.414C2031.84 299.154 2019.92 299.023 2007.42 299.023C1992.84 299.023 1979.82 299.154 1968.36 299.414C1956.9 299.544 1947.59 299.74 1940.43 300ZM2305.47 304.492C2277.21 304.492 2252.67 299.74 2231.84 290.234C2211.13 280.729 2195.12 267.188 2183.79 249.609C2172.46 231.901 2166.8 210.807 2166.8 186.328C2166.8 162.24 2172.53 141.276 2183.98 123.438C2195.57 105.599 2211.78 91.7969 2232.62 82.0312C2253.45 72.1354 2277.86 67.1875 2305.86 67.1875C2334.24 67.1875 2358.85 71.9401 2379.69 81.4453C2400.52 90.8203 2416.6 104.362 2427.93 122.07C2439.26 139.648 2444.92 160.677 2444.92 185.156C2444.92 209.245 2439.19 230.273 2427.73 248.242C2416.28 266.081 2400.07 279.948 2379.1 289.844C2358.27 299.609 2333.72 304.492 2305.47 304.492ZM2304.3 298.633C2326.43 298.633 2345.57 294.01 2361.72 284.766C2377.86 275.391 2390.3 262.24 2399.02 245.312C2407.88 228.385 2412.3 208.464 2412.3 185.547C2412.3 162.24 2407.75 142.188 2398.63 125.391C2389.65 108.594 2377.21 95.638 2361.33 86.5234C2345.57 77.4089 2327.54 72.8516 2307.23 72.8516C2285.35 72.8516 2266.28 77.5391 2250 86.9141C2233.85 96.1589 2221.29 109.245 2212.3 126.172C2203.45 143.099 2199.02 163.021 2199.02 185.938C2199.02 209.245 2203.52 229.362 2212.5 246.289C2221.48 263.086 2233.92 276.042 2249.8 285.156C2265.69 294.141 2283.85 298.633 2304.3 298.633ZM2485.35 300V293.945C2496.16 293.424 2504.23 292.513 2509.57 291.211C2514.91 289.779 2518.49 287.174 2520.31 283.398C2522.14 279.492 2523.05 273.763 2523.05 266.211V105.273C2523.05 97.7214 2522.14 91.9922 2520.31 88.0859C2518.49 84.0495 2514.91 81.3151 2509.57 79.8828C2504.23 78.3203 2496.16 77.5391 2485.35 77.5391V71.6797C2489.65 71.8099 2495.96 71.9401 2504.3 72.0703C2512.63 72.0703 2522.72 72.0703 2534.57 72.0703C2548.11 72.0703 2560.35 72.0052 2571.29 71.875C2582.36 71.7448 2590.3 71.6797 2595.12 71.6797C2624.28 71.6797 2646.88 77.2786 2662.89 88.4766C2678.91 99.5443 2686.91 115.82 2686.91 137.305C2686.91 158.529 2677.86 175.456 2659.77 188.086C2641.8 200.716 2617.45 207.031 2586.72 207.031C2581.77 207.031 2576.11 206.706 2569.73 206.055C2563.48 205.273 2557.94 204.297 2553.12 203.125V266.211C2553.12 273.763 2554.17 279.492 2556.25 283.398C2558.46 287.174 2562.76 289.779 2569.14 291.211C2575.52 292.513 2584.96 293.424 2597.46 293.945V300C2592.25 299.74 2584.77 299.544 2575 299.414C2565.23 299.154 2553.12 299.023 2538.67 299.023C2525.52 299.023 2514.45 299.154 2505.47 299.414C2496.61 299.544 2489.91 299.74 2485.35 300ZM2553.12 77.7344V197.266C2558.2 198.568 2563.74 199.609 2569.73 200.391C2575.72 201.042 2580.4 201.367 2583.79 201.367C2607.49 201.367 2625.2 196.029 2636.91 185.352C2648.76 174.544 2654.69 159.18 2654.69 139.258C2654.69 117.383 2649.09 101.497 2637.89 91.6016C2626.69 81.7057 2609.18 76.888 2585.35 77.1484L2553.12 77.7344ZM2717.19 300V293.945C2728.52 293.424 2736.91 292.448 2742.38 291.016C2747.98 289.583 2751.69 286.979 2753.52 283.203C2755.34 279.297 2756.25 273.633 2756.25 266.211V105.273C2756.25 97.7214 2755.34 92.0573 2753.52 88.2812C2751.69 84.5052 2747.98 81.901 2742.38 80.4688C2736.91 79.0365 2728.52 78.0599 2717.19 77.5391V71.6797C2722.79 71.9401 2730.21 72.2005 2739.45 72.4609C2748.7 72.5911 2759.24 72.6562 2771.09 72.6562C2782.42 72.6562 2792.9 72.5911 2802.54 72.4609C2812.3 72.2005 2820.05 71.9401 2825.78 71.6797V77.5391C2814.45 78.0599 2805.99 79.0365 2800.39 80.4688C2794.79 81.901 2791.08 84.5052 2789.26 88.2812C2787.43 92.0573 2786.52 97.7214 2786.52 105.273V266.211C2786.52 273.763 2787.43 279.427 2789.26 283.203C2791.08 286.979 2794.79 289.583 2800.39 291.016C2805.99 292.448 2814.45 293.424 2825.78 293.945V300C2820.05 299.74 2812.3 299.544 2802.54 299.414C2792.9 299.154 2782.42 299.023 2771.09 299.023C2759.24 299.023 2748.7 299.154 2739.45 299.414C2730.21 299.544 2722.79 299.74 2717.19 300ZM2845.12 300V293.945C2855.14 292.904 2863.41 290.56 2869.92 286.914C2876.43 283.268 2881.77 276.823 2885.94 267.578L2975.78 67.9688H2985.55L3080.08 271.289C3083.46 278.451 3088.15 283.854 3094.14 287.5C3100.13 291.146 3108.33 293.294 3118.75 293.945V300C3111.72 299.74 3104.04 299.544 3095.7 299.414C3087.5 299.154 3079.23 299.023 3070.9 299.023C3058.27 299.023 3046.94 299.154 3036.91 299.414C3027.02 299.544 3019.21 299.74 3013.48 300V293.945C3031.71 293.685 3042.9 291.536 3047.07 287.5C3051.24 283.464 3050.85 276.107 3045.9 265.43L3022.27 214.453H2916.6L2911.13 226.172C2900.59 248.698 2897.59 265.755 2902.15 277.344C2906.84 288.802 2917.9 294.336 2935.35 293.945V300C2929.36 299.87 2921.68 299.674 2912.3 299.414C2903.06 299.154 2893.55 299.023 2883.79 299.023C2878.32 299.023 2873.05 299.154 2867.97 299.414C2863.02 299.544 2855.4 299.74 2845.12 300ZM2919.53 208.398H3019.73L2970.7 94.1406L2919.53 208.398Z" fill="black"/>
<path d="M173.5 362C266.56 362 342 286.56 342 193.5C342 100.44 266.56 25 173.5 25C80.44 25 5 100.44 5 193.5C5 286.56 80.44 362 173.5 362Z" stroke="black" stroke-width="10"/>
<path d="M218.658 78.54L220.261 80.33L222.659 80.1982L290.552 76.4433L286.799 144.337L286.666 146.735L288.456 148.338L339.116 193.691L288.456 239.045L286.666 240.647L286.799 243.046L290.552 310.938L222.659 307.185L220.261 307.052L218.658 308.843L173.305 359.503L127.951 308.843L126.349 307.052L123.95 307.185L56.0566 310.938L59.8115 243.046L59.9434 240.647L58.1533 239.045L7.49219 193.691L58.1533 148.338L59.9434 146.735L59.8115 144.337L56.0566 76.4433L123.95 80.1982L126.349 80.33L127.951 78.54L173.305 27.8789L218.658 78.54Z" stroke="black" stroke-width="10"/>
<path d="M171.599 103.749L173.76 104.798L175.93 103.766L219.671 82.9642L235.526 128.733L236.312 131.003L238.576 131.808L284.214 148.029L263.062 191.602L262.013 193.763L263.044 195.932L283.845 239.674L238.078 255.528L235.808 256.314L235.003 258.578L218.782 304.217L175.209 283.064L173.048 282.015L170.878 283.047L127.136 303.848L111.282 258.08L110.496 255.81L108.233 255.006L62.5938 238.785L83.7468 195.212L84.796 193.05L83.7641 190.881L62.9618 147.139L108.73 131.285L111 130.499L111.805 128.235L128.026 82.5957L171.599 103.749Z" stroke="black" stroke-width="10"/>
<path d="M235.486 131.127L261.243 193.309L235.486 255.49L173.306 281.247L111.124 255.49L85.3672 193.309L111.124 131.127L173.306 105.371L235.486 131.127Z" stroke="black" stroke-width="10"/>
<path d="M220.383 308.847L240.829 350.484" stroke="black" stroke-width="10"/>
<path d="M125.301 308.848L107.32 350.165" stroke="black" stroke-width="10"/>
<path d="M61.3006 238.8L19.8984 260.201" stroke="black" stroke-width="10"/>
<path d="M286.57 240.366L329.211 259.499" stroke="black" stroke-width="10"/>
<path d="M59.1952 145.106L17.9531 127.705" stroke="black" stroke-width="10"/>
<path d="M126.46 78.9465L105.398 39.0068" stroke="black" stroke-width="10"/>
<path d="M221.18 81.7161L240.247 37.9814" stroke="black" stroke-width="10"/>
<path d="M288.273 146.855L330.449 130.184" stroke="black" stroke-width="10"/>
</g>
</g>
<defs>
<clipPath id="clip0_368_108">
<rect width="3121" height="400" fill="white"/>
</clipPath>
</defs>
</svg>
